<svg width="106" height="56" viewBox="0 0 106 56" fill="none" xmlns="http://www.w3.org/2000/svg">
<g clip-path="url(#clip0_3379_228276)">
<path d="M52.9779 48.382C48.0151 50.1983 42.5916 50.2792 37.5777 48.6118C32.5639 46.9444 28.2505 43.6253 25.3298 39.1873L22.1797 37.8008C25.1847 43.7374 30.3507 48.2691 36.5944 50.4453C42.838 52.6215 49.6741 52.2732 55.6688 49.4734L52.9779 48.382Z" fill="#7296C6"/>
<path d="M44.9463 2.05015C48.8001 2.04976 52.5951 3.00426 55.998 4.82984C59.4009 6.65542 62.3077 9.29625 64.4631 12.5204L66.9773 12.7185C64.9497 9.23821 62.1409 6.28691 58.7768 4.1022C55.4127 1.91748 51.5873 0.560377 47.6087 0.140112C43.63 -0.280152 39.6091 0.248168 35.8697 1.68255C32.1303 3.11692 28.7768 5.41729 26.0791 8.39848L29.2449 8.12118C33.555 4.20813 39.1488 2.04528 44.9463 2.05015Z" fill="#7296C6"/>
<path d="M71.4203 13.84C71.909 13.8875 72.4017 13.943 72.8904 14.0024L74.0307 14.147C74.91 14.2593 75.7899 14.3775 76.6705 14.5016L77.5537 14.6284C77.3417 14.5927 77.1297 14.5194 76.9237 14.4659L76.2799 14.3015L74.9885 13.9846C74.1354 13.7733 73.2803 13.5752 72.4232 13.3904H72.3977C71.6127 13.2161 70.8276 13.0556 70.0523 12.9011C69.2771 12.7466 68.5116 12.602 67.7383 12.4614C66.965 12.3208 66.1878 12.1881 65.4106 12.0652C64.6334 11.9424 63.8562 11.8137 63.077 11.6988C62.2978 11.5839 61.5245 11.471 60.7453 11.366C59.9662 11.2611 59.2007 11.168 58.4274 11.0669C57.6541 10.9659 56.8985 10.8827 56.1311 10.7995C55.3637 10.7164 54.6218 10.6351 53.8662 10.5599C53.1105 10.4846 52.3824 10.4153 51.6405 10.3499C50.8986 10.2845 50.1901 10.2251 49.4639 10.1657C48.7377 10.1063 48.0527 10.0587 47.3462 10.0092C46.6396 9.9597 45.9723 9.91612 45.2952 9.87453L43.3227 9.76163L41.4326 9.67249C40.836 9.64476 40.238 9.62099 39.6388 9.60118C39.0748 9.58006 38.5115 9.56223 37.9489 9.5477C37.4255 9.53186 36.9021 9.51931 36.3788 9.51007C35.894 9.50017 35.4092 9.49422 34.9244 9.48828C34.4828 9.48828 34.0412 9.48828 33.5996 9.48828C33.2071 9.48828 32.8146 9.48828 32.422 9.48828C32.0786 9.48828 31.7331 9.48828 31.3897 9.50413C31.0972 9.50413 30.8009 9.51799 30.5143 9.5279C30.2788 9.5279 30.0413 9.54572 29.8058 9.55959H29.739C22.5537 9.98941 16.4419 11.0491 15.7158 11.263C15.1407 11.4175 15.5666 11.7721 15.5666 11.7721L22.3712 15.3711C21.7078 15.2186 21.0307 15.0681 20.3477 14.9195C15.4743 13.6994 10.3635 12.7169 7.09766 12.4792C7.02186 12.4739 6.94579 12.4739 6.86999 12.4792C3.86317 12.5703 2.7837 14.1965 2.65024 14.6898C-1.02781 15.8624 0.116433 18.2829 0.357841 18.6988C0.39931 18.5119 0.465315 18.3313 0.554109 18.162C4.63058 18.6493 9.42735 20.737 10.7031 21.5115C11.1467 30.8032 17.9434 34.5845 24.5811 37.4427C52.1744 49.357 68.4881 54.6615 73.0592 56.0005L65.5892 52.9342C61.9053 51.3754 56.2822 49.0559 49.6052 46.3027C48.5905 45.8946 47.6327 45.4866 46.7201 45.0786L53.7033 43.9515C38.6044 39.5938 29.9549 34.1309 30.2768 27.6816C30.6576 19.9804 43.8644 14.6085 60.7493 13.6182L61.1418 13.6063L62.2056 13.5845C62.7375 13.5845 63.2713 13.5706 63.8032 13.5686C64.4574 13.5686 65.1175 13.5686 65.7835 13.5686C66.5235 13.5686 67.2614 13.5924 68.0013 13.6182C68.772 13.6446 69.542 13.6809 70.3114 13.7271C70.6725 13.7707 71.0494 13.8044 71.4203 13.84ZM6.40091 14.3174C5.509 14.4127 4.63106 14.6121 3.78467 14.9116C3.75326 14.9116 3.7513 14.8878 3.78467 14.8641C4.30281 14.4798 3.84747 14.4164 4.66394 14.1767C4.96423 14.0995 5.61388 14.0539 6.78559 14.2362C6.65422 14.2448 6.52471 14.2722 6.40091 14.3174Z" fill="#004A98"/>
<path d="M46.8324 37.6711C46.5532 37.67 46.2757 37.6253 46.0101 37.5384C45.7556 37.4575 45.5213 37.3224 45.3231 37.1422C45.1267 36.9646 44.9736 36.7436 44.8756 36.4965C44.8068 36.3062 44.7729 36.1048 44.7755 35.9023C44.7759 35.8001 44.7838 35.6982 44.7991 35.5972L45.0719 33.6541C45.1085 33.3304 45.218 33.0194 45.3918 32.7449C45.5541 32.4923 45.7618 32.2726 46.0042 32.0972C46.2422 31.9221 46.5076 31.7882 46.7892 31.7011C47.0697 31.6179 47.3605 31.5752 47.6528 31.5743C47.9322 31.5721 48.21 31.6163 48.4752 31.705C48.7229 31.7856 48.9515 31.9172 49.1464 32.0913C49.3388 32.2644 49.4835 32.4848 49.5664 32.7311C49.6268 32.913 49.6567 33.1038 49.6548 33.2956C49.6544 33.4056 49.6465 33.5155 49.6312 33.6244C49.6006 33.8843 49.5098 34.1333 49.3662 34.3513C49.2306 34.5566 49.055 34.7318 48.8501 34.8663C48.6318 35.007 48.3906 35.1076 48.1376 35.1634C47.8589 35.2281 47.5737 35.26 47.2878 35.2585C46.874 35.2594 46.4638 35.1815 46.0788 35.0287L46.0101 35.5933C46.0025 35.6424 45.9986 35.6921 45.9983 35.7418C45.997 35.8233 46.0124 35.9042 46.0434 35.9795C46.0813 36.0917 46.1492 36.1911 46.2397 36.2667C46.3323 36.3487 46.4405 36.4107 46.5576 36.4489C46.6844 36.4908 46.8168 36.5122 46.9502 36.5123H46.9953C47.2182 36.5076 47.4383 36.4619 47.645 36.3776C47.8775 36.2825 48.0807 36.1266 48.2338 35.926L49.0188 36.5203C48.7433 36.876 48.3935 37.1661 47.9943 37.37C47.6358 37.561 47.2378 37.6641 46.8324 37.6711ZM47.3663 34.3038C47.6381 34.3225 47.9077 34.244 48.1278 34.0819C48.2188 34.0098 48.2923 33.9178 48.343 33.8128C48.3936 33.7078 48.42 33.5926 48.4202 33.4758C48.4197 33.3843 48.4006 33.2939 48.3641 33.2101C48.3277 33.1263 48.2746 33.0509 48.2083 32.9886C48.0081 32.8211 47.751 32.7393 47.4919 32.7608C47.3515 32.7592 47.2118 32.7799 47.0778 32.8222C46.9455 32.8625 46.8208 32.9248 46.7088 33.0064C46.5967 33.088 46.5008 33.1901 46.4261 33.3075C46.3501 33.4274 46.3005 33.5626 46.2809 33.7036L46.2122 34.1097C46.3398 34.1493 46.5027 34.1909 46.7048 34.2364C46.9218 34.2866 47.1437 34.3125 47.3663 34.3137V34.3038Z" fill="#373A3C"/>
<path d="M56.2409 31.6075C56.4966 31.6065 56.75 31.6563 56.9867 31.7541C57.2151 31.8466 57.4222 31.9855 57.5951 32.1621C57.77 32.3438 57.9004 32.5643 57.9759 32.8059C58.0283 32.9859 58.0541 33.1728 58.0524 33.3605C58.0521 33.4712 58.0443 33.5817 58.0289 33.6913L57.4852 37.6805H56.2644L56.8081 33.7388C56.8226 33.6784 56.8305 33.6167 56.8317 33.5546C56.8324 33.4667 56.8153 33.3796 56.7816 33.2985C56.7478 33.2175 56.6981 33.1442 56.6354 33.0832C56.5589 33.0042 56.4672 32.9419 56.3659 32.9C56.2647 32.8581 56.156 32.8375 56.0466 32.8395C55.9205 32.841 55.7957 32.8644 55.6776 32.9089C55.552 32.9527 55.4331 33.0141 55.3243 33.0911C55.2179 33.1662 55.1233 33.257 55.0437 33.3605C54.9682 33.4551 54.92 33.5688 54.9043 33.6893L54.3665 37.6746H53.1575L53.7149 33.6299C53.732 33.5135 53.7185 33.3946 53.6757 33.2852C53.6364 33.188 53.5728 33.1027 53.4912 33.0376C53.4018 32.9656 53.299 32.9124 53.1889 32.8811C53.0714 32.8443 52.9489 32.8262 52.8258 32.8277H52.7591C52.4637 32.8358 52.175 32.9182 51.9191 33.0673L51.293 37.6647H50.084L50.822 32.2295C51.1279 32.036 51.4579 31.8841 51.8033 31.7778C52.1586 31.6627 52.5292 31.6032 52.9024 31.6016C53.2291 31.6065 53.5513 31.68 53.8484 31.8175C54.125 31.941 54.3461 32.1642 54.4686 32.4434C54.6812 32.1783 54.9506 31.9653 55.2566 31.8205C55.5626 31.6757 55.8971 31.6029 56.235 31.6075H56.2409Z" fill="#373A3C"/>
<path d="M59.9679 37.6841H58.7354L59.5656 31.5913H60.7962L59.9679 37.6841ZM60.4684 29.563C60.5669 29.5593 60.6651 29.5774 60.756 29.616C60.8469 29.6547 60.9282 29.713 60.9944 29.7868C61.0896 29.9025 61.141 30.0485 61.1396 30.1988C61.1391 30.2445 61.1358 30.2902 61.1298 30.3355C61.0979 30.5493 60.9914 30.7446 60.8295 30.8861C60.6735 31.0311 60.4685 31.1104 60.2564 31.108C60.1597 31.1121 60.0634 31.0943 59.9744 31.0559C59.8854 31.0176 59.8061 30.9595 59.7422 30.8861C59.645 30.7708 59.5933 30.6235 59.597 30.4721C59.5972 30.4257 59.6012 30.3793 59.6087 30.3335C59.6397 30.1207 59.7439 29.9258 59.9031 29.7828C60.0576 29.6413 60.2598 29.5647 60.4684 29.5689V29.563Z" fill="#373A3C"/>
<path d="M64.2884 31.6211C64.3865 31.6211 64.4847 31.6211 64.5906 31.633C64.7077 31.6431 64.8239 31.6623 64.938 31.6904L64.7791 32.8016C64.6375 32.7605 64.4906 32.7411 64.3433 32.7442H64.2648C64.0743 32.7495 63.8862 32.7891 63.7094 32.8611C63.5365 32.9331 63.3802 33.0403 63.2501 33.176C63.1177 33.3104 63.0311 33.4838 63.0028 33.6712L62.4454 37.6545H61.2148L61.7703 33.6474C61.8213 33.2433 61.9785 32.8603 62.2256 32.5382C62.4515 32.2403 62.7515 32.0079 63.0951 31.8647C63.3246 31.7662 63.5662 31.6996 63.8134 31.6667C63.9709 31.6433 64.1294 31.6281 64.2884 31.6211Z" fill="#373A3C"/>
<path d="M66.878 37.7674C66.6266 37.77 66.377 37.725 66.142 37.6347C65.9151 37.547 65.7092 37.412 65.5375 37.2385C65.3633 37.0575 65.2335 36.8377 65.1587 36.5968C65.1046 36.4266 65.0781 36.2487 65.0802 36.0699C65.0802 35.9625 65.0881 35.8552 65.1037 35.749L65.4001 33.689C65.4374 33.3421 65.5522 33.0083 65.7357 32.7125C65.9007 32.4579 66.115 32.2396 66.3657 32.0708C66.6175 31.9059 66.8968 31.7885 67.1901 31.7241C67.4929 31.6563 67.8023 31.6231 68.1125 31.6251C68.4811 31.6264 68.848 31.6763 69.2038 31.7736C69.5468 31.864 69.8791 31.9915 70.1949 32.1539L69.4334 37.6704H68.4364L68.35 37.1554C68.151 37.365 67.9093 37.5286 67.6415 37.6347C67.3977 37.7276 67.1385 37.7726 66.878 37.7674ZM68.0752 32.6907C67.9117 32.6894 67.7485 32.706 67.5885 32.7402C67.4325 32.7725 67.2827 32.83 67.1449 32.9106C67.0108 32.9904 66.8929 33.0953 66.7975 33.2196C66.6987 33.3505 66.6364 33.5058 66.617 33.6692L66.3226 35.7411C66.3152 35.7903 66.3113 35.8399 66.3108 35.8897C66.3086 35.9687 66.324 36.0472 66.3559 36.1194C66.3895 36.2226 66.4515 36.3139 66.5345 36.3829C66.6219 36.4546 66.7227 36.5079 66.8309 36.5393C66.9528 36.5744 67.079 36.5918 67.2058 36.5908H67.2725C67.4722 36.5913 67.6709 36.5605 67.8613 36.4997C68.059 36.4419 68.245 36.3494 68.4108 36.2264L68.8897 32.8809C68.7739 32.8164 68.6497 32.7684 68.5208 32.7383C68.3751 32.7013 68.2254 32.6826 68.0752 32.6828V32.6907Z" fill="#373A3C"/>
<path d="M72.7947 37.6427H72.5827C72.3249 37.6444 72.0686 37.6015 71.8251 37.516C71.6081 37.439 71.4137 37.3082 71.2598 37.1357C71.1029 36.948 70.9926 36.7253 70.938 36.486C70.8992 36.3266 70.8807 36.1628 70.883 35.9987C70.8843 35.8515 70.8954 35.7046 70.9164 35.559L71.6877 30.2109H72.8163L72.7024 31.6688H73.7976L73.6484 32.8097H72.5395L72.1313 35.5431C72.1176 35.6296 72.1104 35.717 72.1097 35.8046C72.1074 35.9041 72.122 36.0032 72.1529 36.0978C72.2046 36.2183 72.2924 36.3194 72.4041 36.3869C72.525 36.4547 72.6588 36.4959 72.7966 36.5078C72.9497 36.5216 73.1107 36.5296 73.2834 36.5296L73.1362 37.6031C73.0239 37.6278 72.9095 37.641 72.7947 37.6427Z" fill="#373A3C"/>
<path d="M76.1879 37.6494C75.9079 37.6495 75.6296 37.6047 75.3635 37.5167C75.1095 37.435 74.8754 37.3 74.6766 37.1205C74.4798 36.944 74.3266 36.7236 74.2291 36.4768C74.1606 36.2864 74.1267 36.0851 74.129 35.8826C74.1294 35.7804 74.1372 35.6785 74.1526 35.5775L74.4254 33.6324C74.4627 33.3092 74.5728 32.9989 74.7473 32.7252C74.9122 32.475 75.1226 32.2585 75.3675 32.0874C75.6054 31.912 75.8707 31.7781 76.1525 31.6913C76.4321 31.6065 76.7223 31.5631 77.0142 31.5625C77.2941 31.5615 77.5724 31.6056 77.8385 31.6932C78.0858 31.7774 78.3135 31.9115 78.5078 32.0874C78.7002 32.2601 78.8443 32.4807 78.9258 32.7272C78.9862 32.9098 79.0161 33.1012 79.0141 33.2937C79.0135 33.403 79.0062 33.5121 78.9925 33.6205C78.9601 33.88 78.8695 34.1286 78.7276 34.3475C78.5914 34.5523 78.4159 34.7274 78.2114 34.8625C77.9928 35.0024 77.7517 35.103 77.4989 35.1596C77.2197 35.2251 76.9338 35.257 76.6471 35.2547C76.2339 35.2567 75.8242 35.1787 75.4401 35.0249L75.3694 35.5894C75.3635 35.6387 75.3602 35.6883 75.3596 35.738C75.3565 35.8194 75.3713 35.9006 75.4028 35.9756C75.4402 36.0881 75.5082 36.1876 75.5991 36.2629C75.6926 36.3445 75.8014 36.4065 75.919 36.4451C76.0454 36.4881 76.1781 36.5096 76.3115 36.5085H76.3567C76.5796 36.5049 76.8 36.4592 77.0063 36.3738C77.2386 36.2793 77.4419 36.1241 77.5951 35.9241L78.3802 36.5184C78.104 36.8747 77.7536 37.1655 77.3537 37.3701C76.9927 37.5557 76.593 37.6515 76.1879 37.6494ZM76.7198 34.294C76.9923 34.311 77.2621 34.2318 77.4832 34.0702C77.5745 33.9975 77.6481 33.9048 77.6984 33.799C77.7487 33.6933 77.7745 33.5774 77.7737 33.4601C77.7734 33.3687 77.7546 33.2784 77.7185 33.1946C77.6824 33.1108 77.6297 33.0353 77.5637 32.9728C77.3619 32.8071 77.1049 32.7256 76.8454 32.745C76.7051 32.7456 76.5657 32.7662 76.4312 32.8064C76.2991 32.8479 76.1744 32.9108 76.0623 32.9926C75.9513 33.0741 75.8562 33.1755 75.7816 33.2917C75.7048 33.4115 75.6546 33.5467 75.6344 33.6879L75.5677 34.0959C75.6933 34.1335 75.8581 34.1751 76.0603 34.2207C76.2767 34.2697 76.4979 34.2943 76.7198 34.294Z" fill="#373A3C"/>
<path d="M81.5307 36.5082C81.7386 36.5125 81.9432 36.4553 82.1195 36.3438C82.2044 36.2899 82.2766 36.2177 82.3308 36.1325C82.3851 36.0473 82.4202 35.951 82.4335 35.8506C82.4517 35.7588 82.4333 35.6635 82.3825 35.5852C82.331 35.5113 82.264 35.4497 82.1862 35.4049C82.0999 35.3539 82.0076 35.314 81.9114 35.2861C81.8094 35.2544 81.7151 35.2287 81.615 35.2049C81.3962 35.1633 81.181 35.1043 80.9713 35.0286C80.7458 34.9511 80.5338 34.8381 80.3432 34.6939C80.1541 34.5497 79.9998 34.3641 79.8918 34.1511C79.8139 33.977 79.7757 33.7875 79.78 33.5965C79.7802 33.5023 79.7881 33.4082 79.8035 33.3152C79.8365 33.0242 79.933 32.7441 80.0861 32.4952C80.2201 32.2812 80.3981 32.0988 80.6082 31.9604C80.8132 31.8237 81.0404 31.7245 81.2794 31.6673C81.5197 31.6082 81.7662 31.5783 82.0135 31.5781C82.1767 31.579 82.3396 31.5943 82.5002 31.6237C82.6721 31.6564 82.8409 31.7042 83.0046 31.7663C83.1726 31.8311 83.3337 31.9127 83.4855 32.0099C83.6405 32.1118 83.7817 32.2336 83.9055 32.3724L83.0517 33.1845C82.9067 33.039 82.7309 32.9287 82.5375 32.8617C82.3117 32.7741 82.0728 32.7258 81.8309 32.719H81.7878C81.6276 32.716 81.4693 32.7549 81.3285 32.8319C81.2541 32.8773 81.1897 32.9377 81.1394 33.0092C81.0891 33.0808 81.0539 33.162 81.0361 33.2479C81.0043 33.3597 81.0162 33.4795 81.0694 33.5827C81.1225 33.68 81.1996 33.7619 81.2932 33.8203C81.3953 33.8868 81.5063 33.9382 81.6229 33.9729C81.7419 34.0111 81.8631 34.0416 81.986 34.064C82.2118 34.1035 82.4342 34.1604 82.6513 34.2343C82.8608 34.3032 83.0548 34.4129 83.2225 34.5572C83.3847 34.7007 83.5094 34.8823 83.5856 35.086C83.6543 35.246 83.6884 35.4188 83.6857 35.5931C83.6857 35.6841 83.6778 35.7749 83.6621 35.8645C83.6254 36.1466 83.5275 36.4171 83.3756 36.6568C83.2326 36.876 83.0494 37.0656 82.8358 37.2154C82.6219 37.3667 82.3834 37.4793 82.1312 37.5481C81.8754 37.6186 81.6113 37.654 81.3462 37.6531C81.1211 37.6532 80.8968 37.6246 80.6789 37.5679C80.4624 37.5118 80.2554 37.4237 80.0645 37.3065C79.8756 37.1909 79.7076 37.0435 79.568 36.8707C79.4216 36.6907 79.3116 36.4834 79.2441 36.2606L80.253 35.6664C80.359 35.9327 80.5523 36.1543 80.8005 36.2943C81.0215 36.4281 81.273 36.5019 81.5307 36.5082Z" fill="#373A3C"/>
<path d="M89.6714 31.5978C89.9679 31.5953 90.2635 31.6319 90.5507 31.7067C90.8074 31.77 91.0477 31.8883 91.2553 32.0533C91.4565 32.2172 91.6059 32.4368 91.6851 32.6852C91.7544 32.8657 91.7884 33.0581 91.7852 33.2517C91.7844 33.3806 91.7726 33.5092 91.7499 33.636L91.4555 35.7158C91.4172 36.0262 91.3077 36.3232 91.1356 36.5833C90.9709 36.8272 90.761 37.0364 90.5173 37.1994C90.2725 37.3613 90.0034 37.4823 89.7205 37.5579C89.4418 37.6359 89.154 37.6759 88.8647 37.6767C88.5191 37.6827 88.176 37.6152 87.8579 37.4787L87.5851 39.4772H86.3584L87.4025 32.0652C87.7585 31.9166 88.1279 31.8031 88.5056 31.7265C88.8889 31.6439 89.2795 31.6008 89.6714 31.5978ZM88.7882 36.5794H88.8883C89.1807 36.5831 89.4696 36.5151 89.7303 36.3813C89.8574 36.3143 89.9677 36.219 90.0531 36.1027C90.1384 35.9864 90.1965 35.8521 90.2229 35.7098L90.5291 33.6082C90.5369 33.5558 90.5408 33.5028 90.5409 33.4498C90.5428 33.3542 90.5282 33.259 90.4977 33.1685C90.4477 33.0501 90.3662 32.9479 90.2622 32.8734C90.1498 32.7943 90.022 32.7403 89.8873 32.7149C89.7383 32.6828 89.5863 32.6669 89.4339 32.6674C89.1174 32.6681 88.8045 32.7356 88.5154 32.8655L88.0051 36.4467C88.1428 36.4946 88.2848 36.5291 88.429 36.5497C88.5475 36.5711 88.6678 36.581 88.7882 36.5794Z" fill="#373A3C"/>
<path d="M95.3271 31.6055C95.6005 31.6062 95.872 31.6503 96.1318 31.7362C96.3821 31.8197 96.6127 31.9546 96.8089 32.1323C97.0004 32.3043 97.1479 32.5204 97.2387 32.7622C97.3075 32.9464 97.3415 33.1419 97.3388 33.3386C97.3385 33.4401 97.3306 33.5414 97.3153 33.6417L97.0307 35.6759C96.9941 35.9928 96.8845 36.2967 96.7108 36.5633C96.5465 36.8098 96.339 37.024 96.0984 37.1952C95.8594 37.3639 95.594 37.4911 95.3133 37.5715C95.0405 37.6523 94.7577 37.6936 94.4733 37.6943C94.1939 37.6951 93.9159 37.653 93.649 37.5695C93.3965 37.4937 93.1635 37.3632 92.966 37.1872C92.7758 37.0157 92.6285 36.8012 92.5362 36.5613C92.4661 36.3714 92.4328 36.1697 92.438 35.9671C92.4386 35.865 92.4458 35.7632 92.4596 35.6621L92.7442 33.6278C92.7807 33.3133 92.8904 33.012 93.0641 32.7484C93.2285 32.503 93.436 32.2902 93.6765 32.1205C93.9159 31.951 94.1811 31.8219 94.4615 31.7382C94.7422 31.6519 95.0337 31.6072 95.3271 31.6055ZM95.1544 32.8157C95.022 32.8151 94.89 32.8318 94.7618 32.8652C94.6335 32.8981 94.5105 32.9494 94.3968 33.0177C94.2875 33.0827 94.1922 33.1689 94.1161 33.2713C94.0397 33.3757 93.9898 33.4974 93.9709 33.6258L93.6981 35.6066C93.6905 35.6478 93.6866 35.6895 93.6863 35.7314C93.6842 35.8134 93.7032 35.8946 93.7412 35.9671C93.7813 36.0771 93.8489 36.1746 93.9375 36.2503C94.0344 36.3275 94.145 36.3854 94.2633 36.4207C94.3848 36.4584 94.5111 36.4778 94.6382 36.4781C94.7631 36.4767 94.8872 36.458 95.0072 36.4227C95.142 36.3848 95.2699 36.3253 95.386 36.2464C95.4965 36.1741 95.5919 36.0805 95.6666 35.9711C95.7415 35.8611 95.7917 35.7361 95.8138 35.6046L96.0866 33.6239C96.0927 33.5859 96.096 33.5475 96.0965 33.509C96.0992 33.4262 96.0803 33.3442 96.0415 33.2713C95.9914 33.1696 95.9189 33.0808 95.8295 33.0118C95.735 32.9419 95.6286 32.8902 95.5155 32.8593C95.3978 32.8272 95.2762 32.8125 95.1544 32.8157Z" fill="#373A3C"/>
<path d="M100.033 36.5434C100.24 36.5478 100.445 36.4913 100.621 36.381C100.706 36.3269 100.778 36.2547 100.833 36.1695C100.887 36.0843 100.922 35.9881 100.935 35.8878C100.953 35.7966 100.935 35.702 100.884 35.6243C100.834 35.5492 100.766 35.4869 100.688 35.4421C100.602 35.391 100.51 35.3511 100.413 35.3232C100.313 35.2915 100.217 35.2658 100.117 35.244C99.8986 35.2005 99.6835 35.1416 99.4732 35.0677C99.2487 34.9893 99.0375 34.8764 98.8471 34.733C98.6566 34.5889 98.5015 34.4025 98.3938 34.1883C98.3158 34.0149 98.2782 33.8259 98.2838 33.6356C98.2841 33.5407 98.2919 33.446 98.3074 33.3524C98.3404 33.0616 98.4362 32.7817 98.5881 32.5323C98.722 32.3183 98.9001 32.1359 99.1101 31.9975C99.3162 31.8616 99.5439 31.7624 99.7833 31.7044C100.182 31.6053 100.597 31.5905 101.002 31.6608C101.174 31.6936 101.343 31.7413 101.507 31.8034C101.674 31.869 101.835 31.9506 101.987 32.0471C102.143 32.1484 102.284 32.2703 102.407 32.4095L101.554 33.2236C101.409 33.0768 101.233 32.9657 101.039 32.8988C100.814 32.8133 100.576 32.7651 100.335 32.7562H100.294C100.133 32.7531 99.9752 32.792 99.8344 32.8691C99.7601 32.9151 99.6959 32.9759 99.6457 33.0478C99.5954 33.1196 99.5601 33.201 99.5419 33.287C99.5098 33.3981 99.5218 33.5174 99.5753 33.6198C99.6284 33.7171 99.7054 33.799 99.799 33.8575C99.9015 33.9238 100.012 33.9758 100.129 34.012C100.252 34.0496 100.374 34.0793 100.492 34.1031C100.718 34.1419 100.942 34.1988 101.159 34.2734C101.368 34.3428 101.561 34.4525 101.728 34.5963C101.891 34.7385 102.016 34.9197 102.091 35.1232C102.16 35.2838 102.194 35.4573 102.192 35.6322C102.191 35.7232 102.184 35.814 102.168 35.9036C102.131 36.1858 102.034 36.4563 101.881 36.6959C101.74 36.9149 101.557 37.1039 101.344 37.2525C101.129 37.4043 100.89 37.5169 100.637 37.5853C100.382 37.6569 100.117 37.6922 99.852 37.6902C99.6276 37.6905 99.404 37.6619 99.1867 37.6051C98.97 37.5488 98.7625 37.4614 98.5704 37.3456C98.3818 37.2287 98.214 37.0807 98.0738 36.9078C97.9283 36.7272 97.8183 36.5201 97.75 36.2978L98.7588 35.7035C98.8662 35.9685 99.0592 36.1891 99.3064 36.3295C99.5259 36.4632 99.7762 36.537 100.033 36.5434Z" fill="#373A3C"/>
<path d="M104.992 37.7092H104.778C104.521 37.7124 104.265 37.6701 104.022 37.5844C103.805 37.5081 103.611 37.3772 103.457 37.2041C103.3 37.0165 103.189 36.7938 103.133 36.5544C103.095 36.3955 103.078 36.2325 103.08 36.0691C103.082 35.9206 103.093 35.7724 103.114 35.6254L103.885 30.2773H105.004L104.89 31.7352H105.999L105.85 32.8761H104.741L104.333 35.6096C104.318 35.6953 104.31 35.7821 104.309 35.869C104.307 35.9693 104.322 36.0691 104.354 36.1642C104.406 36.2844 104.494 36.3853 104.605 36.4534C104.726 36.5219 104.86 36.5625 104.998 36.5722C105.16 36.5885 105.323 36.5964 105.487 36.596L105.337 37.6695C105.224 37.6946 105.108 37.7079 104.992 37.7092Z" fill="#373A3C"/>
<path d="M46.3564 22.8464L46.0031 24.9578C45.9812 25.0557 45.9812 25.1571 46.0031 25.255C46.0241 25.3396 46.0629 25.4186 46.1169 25.4867C46.1459 25.5265 46.1833 25.5593 46.2264 25.5826C46.2696 25.6059 46.3173 25.6191 46.3662 25.6214H50.0148C50.1234 25.6113 50.2253 25.5637 50.3033 25.4867C50.3806 25.4205 50.4468 25.3423 50.4996 25.255C50.5525 25.1632 50.5884 25.0626 50.6056 24.9578L51.1571 21.6797H52.3661L51.8146 24.9578C51.7805 25.1552 51.7092 25.3442 51.6046 25.5144C51.4983 25.6874 51.3659 25.8424 51.212 25.974C50.8387 26.3014 50.3602 26.4809 49.8656 26.4791H46.2327C45.9964 26.4841 45.7617 26.4388 45.5438 26.3464C45.352 26.2645 45.1829 26.1367 45.0512 25.974C44.9405 25.8396 44.8596 25.6829 44.8137 25.5144C44.766 25.3328 44.7586 25.1427 44.7921 24.9578L45.1454 22.8543L46.3564 22.8464Z" fill="#373A3C"/>
<path d="M55.7147 19.4414L54.5371 26.4077H53.3262L54.5038 19.4414H55.7147Z" fill="#373A3C"/>
<path d="M58.2726 21.6602L57.4679 26.4497C57.4043 26.7364 57.3136 27.0163 57.1971 27.2856C57.0979 27.5119 56.972 27.7254 56.8222 27.9214C56.685 28.0983 56.5253 28.2561 56.3473 28.3908C56.1731 28.5209 55.9847 28.6306 55.7859 28.7177C55.589 28.8073 55.3839 28.8776 55.1736 28.9276C54.9642 28.9774 54.7518 29.0131 54.5377 29.0346C54.3206 29.0589 54.1025 29.0721 53.8841 29.0742C53.663 29.0742 53.4393 29.0742 53.2129 29.0742L53.3562 28.2225H53.8861C54.0568 28.2225 54.2237 28.2106 54.3826 28.1967C54.5416 28.1829 54.6908 28.1591 54.8321 28.1314C54.967 28.1049 55.0986 28.0637 55.2246 28.0085C55.4757 27.8988 55.6898 27.7178 55.8409 27.4876C55.9361 27.3476 56.0158 27.1975 56.0784 27.04C56.1565 26.8438 56.217 26.641 56.259 26.4338L57.0617 21.6562L58.2726 21.6602Z" fill="#373A3C"/>
<path d="M70.35 22.7651C70.3288 22.5536 70.2759 22.3465 70.193 22.1511C70.1194 21.9796 70.0171 21.8222 69.8908 21.6856C69.7704 21.5572 69.6306 21.4489 69.4766 21.3647C69.3302 21.2878 69.1745 21.2306 69.0134 21.1944C68.8622 21.1591 68.7074 21.1418 68.5522 21.1429H68.4973C68.3196 21.143 68.1426 21.1629 67.9693 21.2023C67.7926 21.2426 67.6208 21.3024 67.457 21.3806C67.2732 21.4657 67.0994 21.5714 66.9389 21.6955C66.7719 21.8255 66.6221 21.9766 66.4934 22.1451C66.356 22.3246 66.2407 22.5201 66.1499 22.7275C66.0528 22.9529 65.9842 23.1899 65.9458 23.4326L65.5807 25.6115H60.4248C60.3772 25.6072 60.331 25.5931 60.2891 25.5699C60.2472 25.5467 60.2105 25.515 60.1814 25.4768C60.1267 25.4091 60.0878 25.3299 60.0676 25.245C60.0457 25.1472 60.0457 25.0457 60.0676 24.9479L60.992 19.4414H59.781L58.8507 24.9578C58.8172 25.1427 58.8246 25.3327 58.8723 25.5144C58.9182 25.6829 58.9991 25.8396 59.1098 25.9739C59.2419 26.1372 59.4117 26.2651 59.6044 26.3463C59.8198 26.4379 60.0517 26.4831 60.2854 26.479H65.9458L67.616 26.9465H67.6317C67.7847 26.9834 67.9415 27.002 68.0988 27.002C68.2219 27.0023 68.3448 26.991 68.4659 26.9683C68.7544 26.9148 69.0266 26.7941 69.2607 26.6157C69.3652 26.5451 69.4619 26.4634 69.5493 26.3721C69.6326 26.2849 69.7094 26.1916 69.7789 26.0928C69.9001 25.908 69.981 25.6994 70.0164 25.4807L70.3382 23.5376C70.3751 23.2817 70.3791 23.0221 70.35 22.7651ZM69.1175 23.5336L68.7975 25.4728C68.781 25.5795 68.7486 25.683 68.7014 25.7798C68.6584 25.8693 68.596 25.9478 68.5188 26.0096C68.4383 26.0688 68.3433 26.1051 68.2441 26.1146H68.1754C68.0685 26.1117 67.9629 26.0903 67.8633 26.0512L66.778 25.7501L67.1705 23.4326C67.2136 23.1182 67.3278 22.818 67.5041 22.5552C67.645 22.349 67.8345 22.1815 68.0557 22.0679C68.1572 22.0257 68.2643 21.999 68.3736 21.9887C68.4758 21.9913 68.5763 22.0163 68.668 22.0619C68.7564 22.1134 68.8348 22.1805 68.8996 22.26C68.9735 22.3521 69.0307 22.4568 69.0684 22.569C69.1145 22.706 69.1422 22.8485 69.1508 22.9929C69.1594 23.1738 69.1482 23.3552 69.1175 23.5336Z" fill="#373A3C"/>
<path d="M72.6662 28.1429L71.3296 28.2538L71.3395 27.8913L71.7202 27.8695C71.681 27.8022 71.6476 27.7467 71.6201 27.7031C71.5947 27.6667 71.5786 27.6245 71.573 27.5803C71.5691 27.5567 71.5691 27.5326 71.573 27.509C71.576 27.4902 71.5806 27.4716 71.5867 27.4536C71.6105 27.3932 71.6414 27.336 71.679 27.2832C71.7294 27.1952 71.8064 27.1258 71.8988 27.0852C71.9948 27.0422 72.0967 27.0141 72.2011 27.002C72.2545 26.9957 72.3082 26.9924 72.362 26.9921H72.468C72.5543 27.0026 72.6348 27.0145 72.7094 27.0277L72.5622 27.3724C72.5032 27.3606 72.4435 27.352 72.3836 27.3466C72.3542 27.3446 72.3247 27.3446 72.2953 27.3466C72.2672 27.3446 72.239 27.3446 72.2109 27.3466C72.1069 27.3585 72.046 27.3783 72.0264 27.41C72.0184 27.4212 72.013 27.4341 72.0107 27.4476C72.0075 27.4747 72.0137 27.502 72.0283 27.5249C72.0504 27.5778 72.0809 27.6266 72.1186 27.6695C72.1571 27.7159 72.1894 27.7672 72.2148 27.822L72.676 27.7804L72.6662 28.1429ZM73.8615 19.4414L72.8252 25.6115H74.2226C74.3313 25.6013 74.4331 25.5538 74.5111 25.4768C74.5877 25.41 74.6539 25.3318 74.7074 25.245C74.7633 25.1544 74.8006 25.0533 74.8173 24.9479L75.7417 19.4414H76.9527L76.0263 24.9558C75.9923 25.1532 75.921 25.3422 75.8163 25.5124C75.7101 25.6854 75.5776 25.8404 75.4238 25.972C75.239 26.1311 75.0286 26.2571 74.8016 26.3443C74.5684 26.4334 74.3209 26.4784 74.0715 26.4771H70.6172L70.7605 25.6194H71.6142L72.6505 19.4493L73.8615 19.4414Z" fill="#373A3C"/>
<path d="M79.1112 19.4414L77.9336 26.4077H76.7402L77.9179 19.4414H79.1112Z" fill="#373A3C"/>
<path d="M88.0929 21.6596L87.5355 24.9576C87.5177 25.0624 87.4811 25.1631 87.4276 25.2547C87.3749 25.3421 87.3086 25.4204 87.2313 25.4865C87.1516 25.5644 87.0475 25.612 86.9369 25.6212H84.9448C85.0135 25.3498 85.0684 25.0943 85.1077 24.8546C85.1466 24.6332 85.1728 24.4096 85.1862 24.1851C85.2177 23.8213 85.2072 23.455 85.1548 23.0937C85.1175 22.8179 85.0352 22.5502 84.9114 22.3014C84.8103 22.1015 84.6778 21.9196 84.5189 21.7626C84.3796 21.6238 84.2184 21.5094 84.0419 21.4239C83.8802 21.3461 83.7112 21.2844 83.5375 21.2397C83.3843 21.1997 83.2281 21.1726 83.0704 21.1585L82.7034 21.1367H82.6936V21.1486H82.6818L82.2108 21.9667C82.3894 21.9825 82.5699 22.0023 82.7544 22.0281C82.9324 22.0539 83.1056 22.106 83.2686 22.1826C83.4322 22.2621 83.5752 22.3787 83.6867 22.5232C83.8204 22.7087 83.9098 22.923 83.9477 23.1492C84.0031 23.4762 84.017 23.809 83.9889 24.1395C83.9728 24.378 83.944 24.6153 83.9026 24.8506C83.8633 25.0863 83.8123 25.3419 83.7456 25.6172H80.9861L80.8408 26.4749H86.8034C87.0534 26.4773 87.3016 26.433 87.5355 26.3441C87.7613 26.2568 87.9704 26.1308 88.1537 25.9717C88.3075 25.8401 88.4399 25.6851 88.5463 25.5122C88.6509 25.342 88.7222 25.153 88.7563 24.9556L89.3019 21.6596H88.0929Z" fill="#373A3C"/>
<path d="M95.0349 21.6602L94.4815 24.9581C94.4652 25.0631 94.4292 25.1639 94.3755 25.2552C94.3234 25.343 94.257 25.4213 94.1792 25.487C94.0995 25.565 93.9954 25.6126 93.8848 25.6217H91.8534L92.5168 21.6602H91.3019L90.4992 26.4377C90.4557 26.6447 90.3946 26.8475 90.3167 27.0439C90.2547 27.2013 90.1757 27.3515 90.0811 27.4915C90.0005 27.6111 89.9034 27.7185 89.7926 27.8104C89.6929 27.8912 89.5826 27.9579 89.4649 28.0085C89.3389 28.0638 89.2072 28.105 89.0723 28.1313C88.931 28.159 88.7819 28.1808 88.6229 28.1967C88.4639 28.2125 88.299 28.2204 88.1263 28.2224H87.5964L87.4531 29.0741C87.6808 29.0741 87.9045 29.0741 88.1263 29.0741C88.3481 29.0741 88.564 29.0583 88.7799 29.0345C88.9933 29.013 89.2051 28.9773 89.4138 28.9276C89.6242 28.8776 89.8292 28.8073 90.0262 28.7176C90.2244 28.6313 90.412 28.5223 90.5856 28.3927C90.7659 28.2602 90.9282 28.1044 91.0684 27.9293C91.2197 27.735 91.3469 27.5228 91.4472 27.2974C91.5636 27.0326 91.653 26.7565 91.7141 26.4734H93.7514C94.0014 26.4757 94.2497 26.4306 94.4834 26.3407C94.7098 26.2534 94.9196 26.1274 95.1036 25.9683C95.258 25.8373 95.3905 25.6822 95.4962 25.5088C95.6016 25.3389 95.673 25.1498 95.7062 24.9522L96.2597 21.6621L95.0349 21.6602Z" fill="#373A3C"/>
<path d="M47.373 20.0809C47.3887 19.9953 47.42 19.9134 47.4653 19.8393C47.5091 19.7646 47.5648 19.6977 47.6301 19.6412C47.693 19.5854 47.7646 19.5405 47.8421 19.5085C47.9161 19.4774 47.9955 19.4612 48.0757 19.461C48.1522 19.46 48.2279 19.4763 48.2975 19.5085C48.3632 19.5389 48.421 19.5843 48.4662 19.6412C48.5111 19.6996 48.5426 19.7672 48.5585 19.8393C48.5754 19.919 48.5754 20.0013 48.5585 20.0809C48.528 20.2492 48.4389 20.401 48.3073 20.5088C48.2441 20.5632 48.1725 20.6067 48.0953 20.6375C48.0203 20.67 47.9395 20.6869 47.8578 20.6871C47.7482 20.6886 47.6412 20.6532 47.5537 20.5865C47.4663 20.5198 47.4034 20.4255 47.375 20.3186C47.3575 20.2405 47.3568 20.1594 47.373 20.0809Z" fill="#373A3C"/>
<path d="M48.9468 20.081C48.9609 19.9952 48.9916 19.9131 49.0371 19.8393C49.0822 19.765 49.1385 19.6982 49.2039 19.6412C49.2668 19.5844 49.3392 19.5395 49.4178 19.5085C49.4945 19.4772 49.5765 19.461 49.6592 19.461C49.7351 19.4601 49.8102 19.4763 49.8791 19.5085C49.9428 19.5385 49.9981 19.5841 50.04 19.6412C50.0848 19.6996 50.1163 19.7672 50.1322 19.8393C50.149 19.919 50.149 20.0013 50.1322 20.081C50.117 20.1648 50.0871 20.2453 50.0439 20.3186C50.0026 20.3934 49.9488 20.4604 49.8849 20.5167C49.8235 20.5715 49.7531 20.6151 49.6769 20.6455C49.6032 20.6779 49.5237 20.6947 49.4433 20.695C49.3647 20.6966 49.2867 20.6797 49.2157 20.6455C49.1505 20.6159 49.0928 20.5719 49.0469 20.5167C49.001 20.4615 48.9681 20.3965 48.9507 20.3266C48.9293 20.2463 48.928 20.1619 48.9468 20.081Z" fill="#373A3C"/>
<path d="M83.229 28.6981C83.2442 28.6124 83.2755 28.5303 83.3212 28.4565C83.3651 28.3818 83.4208 28.3149 83.4861 28.2584C83.5494 28.2032 83.6209 28.1584 83.6981 28.1257C83.772 28.0944 83.8514 28.0782 83.9316 28.0782C84.0081 28.0772 84.0839 28.0935 84.1534 28.1257C84.2185 28.1562 84.2756 28.2017 84.3202 28.2584C84.3665 28.3161 84.3987 28.384 84.4145 28.4565C84.4312 28.5362 84.4312 28.6185 84.4145 28.6981C84.4011 28.7823 84.3718 28.863 84.3281 28.9358C84.2847 29.0103 84.2297 29.0771 84.1652 29.1339C84.1011 29.188 84.0289 29.2315 83.9513 29.2627C83.8759 29.2938 83.7952 29.3099 83.7138 29.3102C83.6043 29.312 83.4974 29.2767 83.4102 29.2099C83.323 29.1431 83.2606 29.0487 83.2329 28.9418C83.2128 28.862 83.2115 28.7786 83.229 28.6981Z" fill="#373A3C"/>
<path d="M84.8038 28.6982C84.8182 28.6125 84.8489 28.5305 84.8941 28.4565C84.9385 28.3823 84.9942 28.3155 85.0589 28.2584C85.1227 28.2029 85.1949 28.1581 85.2728 28.1257C85.3502 28.0944 85.4328 28.0783 85.5162 28.0782C85.5915 28.077 85.666 28.0933 85.7341 28.1257C85.798 28.1563 85.8538 28.2018 85.897 28.2584C85.9418 28.3168 85.9733 28.3844 85.9892 28.4565C86.006 28.5362 86.006 28.6185 85.9892 28.6982C85.9743 28.7821 85.9444 28.8627 85.9009 28.9359C85.8167 29.0805 85.6877 29.1932 85.5339 29.2567C85.4592 29.2881 85.3792 29.3042 85.2984 29.3043C85.2206 29.3054 85.1435 29.2892 85.0727 29.2567C85.0079 29.2265 84.9503 29.1826 84.9039 29.128C84.8579 29.0696 84.8244 29.0021 84.8057 28.9299C84.7881 28.8538 84.7874 28.7746 84.8038 28.6982Z" fill="#373A3C"/>
<path d="M92.4531 28.6982C92.4692 28.6127 92.5004 28.5308 92.5454 28.4565C92.5892 28.3818 92.6449 28.3149 92.7102 28.2584C92.774 28.2029 92.8462 28.1581 92.9241 28.1257C93.0015 28.0942 93.0841 28.0781 93.1675 28.0782C93.2428 28.077 93.3173 28.0933 93.3854 28.1257C93.449 28.1568 93.5047 28.2022 93.5483 28.2584C93.5925 28.3169 93.6233 28.3846 93.6385 28.4565C93.6553 28.5362 93.6553 28.6185 93.6385 28.6982C93.6236 28.7821 93.5937 28.8627 93.5502 28.9359C93.5076 29.0097 93.454 29.0765 93.3912 29.1339C93.329 29.1875 93.2588 29.231 93.1832 29.2627C93.1086 29.294 93.0285 29.3102 92.9477 29.3102C92.8699 29.3115 92.7928 29.2953 92.722 29.2627C92.657 29.2329 92.5993 29.189 92.5532 29.1339C92.5064 29.076 92.4729 29.0084 92.4551 28.9359C92.4375 28.8577 92.4369 28.7766 92.4531 28.6982Z" fill="#373A3C"/>
</g>
<defs>
<clipPath id="clip0_3379_228276">
<rect width="106" height="56" fill="white"/>
</clipPath>
</defs>
</svg>
